<svg width="21" height="21" viewBox="0 0 21 21" fill="none" xmlns="http://www.w3.org/2000/svg">
<path d="M10.0916 0.0756836C8.11374 0.0756836 6.18035 0.662173 4.53585 1.76099C2.89136 2.8598 1.60964 4.42159 0.852762 6.24885C0.0958856 8.07611 -0.102148 10.0868 0.283704 12.0266C0.669557 13.9664 1.62196 15.7482 3.02049 17.1468C4.41901 18.5453 6.20084 19.4977 8.14065 19.8835C10.0805 20.2694 12.0911 20.0714 13.9184 19.3145C15.7457 18.5576 17.3074 17.2759 18.4063 15.6314C19.5051 13.9869 20.0916 12.0535 20.0916 10.0757C20.0916 8.76246 19.8329 7.4621 19.3304 6.24885C18.8278 5.03559 18.0912 3.9332 17.1626 3.00462C16.234 2.07603 15.1316 1.33944 13.9184 0.836888C12.7051 0.334341 11.4048 0.0756836 10.0916 0.0756836ZM10.0916 18.0757C8.50931 18.0757 6.96259 17.6065 5.647 16.7274C4.3314 15.8484 3.30602 14.599 2.70052 13.1372C2.09502 11.6753 1.93659 10.0668 2.24528 8.51496C2.55396 6.96311 3.31588 5.53765 4.4347 4.41883C5.55352 3.30001 6.97899 2.53808 8.53084 2.2294C10.0827 1.92072 11.6912 2.07915 13.153 2.68465C14.6148 3.29015 15.8643 4.31553 16.7433 5.63112C17.6224 6.94671 18.0916 8.49343 18.0916 10.0757C18.0916 12.1974 17.2487 14.2322 15.7484 15.7325C14.2481 17.2328 12.2133 18.0757 10.0916 18.0757Z" fill="#181725"/>
<path d="M10.0916 15.0757C10.6438 15.0757 11.0916 14.628 11.0916 14.0757C11.0916 13.5234 10.6438 13.0757 10.0916 13.0757C9.53927 13.0757 9.09155 13.5234 9.09155 14.0757C9.09155 14.628 9.53927 15.0757 10.0916 15.0757Z" fill="#181725"/>
<path d="M10.0916 5.07568C9.82634 5.07568 9.57198 5.18104 9.38445 5.36858C9.19691 5.55611 9.09155 5.81047 9.09155 6.07568V11.0757C9.09155 11.3409 9.19691 11.5953 9.38445 11.7828C9.57198 11.9703 9.82634 12.0757 10.0916 12.0757C10.3568 12.0757 10.6111 11.9703 10.7987 11.7828C10.9862 11.5953 11.0916 11.3409 11.0916 11.0757V6.07568C11.0916 5.81047 10.9862 5.55611 10.7987 5.36858C10.6111 5.18104 10.3568 5.07568 10.0916 5.07568Z" fill="#181725"/>
</svg>

