<svg width="20" height="23" viewBox="0 0 20 23" fill="none" xmlns="http://www.w3.org/2000/svg">
<path fill-rule="evenodd" clip-rule="evenodd" d="M1.68628 9.46259C1.70205 4.78077 5.47797 0.998304 10.12 1.01421C14.7621 1.03012 18.5125 4.83837 18.4967 9.52019V9.61619C18.4396 12.6595 16.7547 15.4725 14.6891 17.671C13.5078 18.9082 12.1886 20.0035 10.7578 20.9351C10.3752 21.2689 9.80774 21.2689 9.42516 20.9351C7.29219 19.5349 5.42015 17.7671 3.89467 15.7125C2.53504 13.9208 1.76309 11.7462 1.68628 9.49139L1.68628 9.46259Z" stroke="#181725" stroke-width="2" stroke-linecap="round" stroke-linejoin="round"/>
<path fill-rule="evenodd" clip-rule="evenodd" d="M10.0916 11.9872C11.3847 11.9872 12.4331 10.9299 12.4331 9.6256C12.4331 8.32134 11.3847 7.26404 10.0916 7.26404C8.79839 7.26404 7.75006 8.32134 7.75006 9.6256C7.75006 10.9299 8.79839 11.9872 10.0916 11.9872Z" stroke="#181725" stroke-width="2" stroke-linecap="round" stroke-linejoin="round"/>
</svg>

