<svg width="21" height="16" viewBox="0 0 21 16" fill="none" xmlns="http://www.w3.org/2000/svg">
<path d="M2.09155 2.43074H1.99155V2.53074V13.2564V13.3564H2.09155H18.0916H18.1916V13.2564V2.53074V2.43074H18.0916H2.09155ZM2.09155 0.48562H18.0916C18.5931 0.48562 19.0757 0.699258 19.4326 1.08211C19.7898 1.46519 19.9916 1.98617 19.9916 2.53074V13.2564C19.9916 13.8009 19.7898 14.3219 19.4326 14.705C19.0757 15.0878 18.5931 15.3015 18.0916 15.3015H2.09155C1.58999 15.3015 1.10743 15.0878 0.750481 14.705C0.393313 14.3219 0.191553 13.8009 0.191553 13.2564V2.53074C0.191553 1.98617 0.393313 1.46519 0.750481 1.08211C1.10743 0.699258 1.58999 0.48562 2.09155 0.48562ZM11.0916 4.77587H16.0916C16.3279 4.77587 16.5561 4.8765 16.7255 5.05821C16.8951 5.24015 16.9916 5.48832 16.9916 5.74843C16.9916 6.00854 16.8951 6.25671 16.7255 6.43865C16.5561 6.62035 16.3279 6.72099 16.0916 6.72099H11.0916C10.8552 6.72099 10.627 6.62035 10.4576 6.43865C10.288 6.25671 10.1916 6.00854 10.1916 5.74843C10.1916 5.48832 10.288 5.24015 10.4576 5.05821C10.627 4.8765 10.8552 4.77587 11.0916 4.77587ZM11.0916 7.99355H16.0916C16.3279 7.99355 16.5561 8.09419 16.7255 8.27589C16.8951 8.45783 16.9916 8.706 16.9916 8.96611C16.9916 9.22622 16.8951 9.4744 16.7255 9.65634C16.5561 9.83804 16.3279 9.93867 16.0916 9.93867H11.0916C10.8552 9.93867 10.627 9.83804 10.4576 9.65634C10.288 9.4744 10.1916 9.22622 10.1916 8.96611C10.1916 8.706 10.288 8.45783 10.4576 8.27589C10.627 8.09419 10.8552 7.99355 11.0916 7.99355Z" fill="#181725" stroke="white" stroke-width="0.2"/>
<g clip-path="url(#clip0)">
<path d="M6.84178 5.58134V6.14404C6.84178 6.44845 6.7042 6.73442 6.46571 6.93736C6.21806 7.14953 5.89702 7.26945 5.55764 7.26945C5.21826 7.26945 4.88805 7.14953 4.64957 6.93736C4.41109 6.73442 4.2735 6.44845 4.2735 6.14404V5.58134C4.2735 5.28615 4.41109 5.00019 4.64957 4.78802C4.88805 4.57585 5.21826 4.45593 5.55764 4.45593C5.89702 4.45593 6.21806 4.57585 6.46571 4.78802C6.7042 5.00019 6.84178 5.28615 6.84178 5.58134Z" fill="#181725"/>
<path d="M7.80492 8.90212V9.36335C7.80492 9.58475 7.69485 9.80614 7.52058 9.96296C7.33713 10.1198 7.08947 10.212 6.84182 10.212H4.27353C4.0167 10.212 3.76905 10.1198 3.59477 9.96296C3.41132 9.80614 3.31042 9.58475 3.31042 9.36335V8.87445C3.31042 8.56081 3.42049 8.24717 3.62229 7.98888C3.82408 7.73059 4.10843 7.52765 4.43864 7.40773C4.4845 7.39851 4.52119 7.38928 4.56705 7.38928C4.61291 7.38928 4.6496 7.39851 4.69546 7.40773H6.33733C6.35568 7.40773 6.36485 7.40773 6.37402 7.41696C6.37402 7.40773 6.38319 7.40773 6.38319 7.40773C6.52995 7.39851 6.62168 7.40773 6.63085 7.40773C6.9794 7.52765 7.27292 7.73059 7.48389 7.99811C7.68568 8.26562 7.80492 8.57926 7.80492 8.90212Z" fill="#181725"/>
</g>
<defs>
<clipPath id="clip0">
<rect width="6" height="7.68429" fill="white" transform="translate(3.09155 4.45593)"/>
</clipPath>
</defs>
</svg>

