<svg width="21" height="21" viewBox="0 0 21 21" fill="none" xmlns="http://www.w3.org/2000/svg">
<path d="M10.0916 0.854004C8.11374 0.854004 6.18035 1.44049 4.53585 2.53931C2.89136 3.63812 1.60964 5.19991 0.852762 7.02717C0.0958856 8.85443 -0.102148 10.8651 0.283704 12.8049C0.669557 14.7447 1.62196 16.5265 3.02049 17.9251C4.41901 19.3236 6.20084 20.276 8.14065 20.6619C10.0805 21.0477 12.0911 20.8497 13.9184 20.0928C15.7457 19.3359 17.3074 18.0542 18.4063 16.4097C19.5051 14.7652 20.0916 12.8318 20.0916 10.854C20.0916 9.54078 19.8329 8.24043 19.3304 7.02717C18.8278 5.81391 18.0912 4.71152 17.1626 3.78294C16.234 2.85435 15.1316 2.11776 13.9184 1.61521C12.7051 1.11266 11.4048 0.854004 10.0916 0.854004ZM10.0916 18.854C8.50931 18.854 6.96259 18.3848 5.647 17.5058C4.3314 16.6267 3.30602 15.3773 2.70052 13.9155C2.09502 12.4537 1.93659 10.8451 2.24528 9.29328C2.55396 7.74143 3.31588 6.31597 4.4347 5.19715C5.55352 4.07833 6.97899 3.3164 8.53084 3.00772C10.0827 2.69904 11.6912 2.85747 13.153 3.46297C14.6148 4.06847 15.8643 5.09385 16.7433 6.40944C17.6224 7.72504 18.0916 9.27175 18.0916 10.854C18.0916 12.9757 17.2487 15.0106 15.7484 16.5109C14.2481 18.0112 12.2133 18.854 10.0916 18.854Z" fill="#181725"/>
<path d="M10.3091 4.85407C9.38082 4.85407 8.49059 5.22282 7.83421 5.8792C7.17783 6.53557 6.80908 7.42581 6.80908 8.35407C6.80908 8.61929 6.91444 8.87364 7.10198 9.06118C7.28951 9.24871 7.54387 9.35407 7.80908 9.35407C8.0743 9.35407 8.32865 9.24871 8.51619 9.06118C8.70372 8.87364 8.80908 8.61929 8.80908 8.35407C8.80908 8.0574 8.89706 7.76739 9.06188 7.52072C9.2267 7.27404 9.46097 7.08178 9.73506 6.96825C10.0091 6.85472 10.3107 6.82502 10.6017 6.88289C10.8927 6.94077 11.16 7.08363 11.3697 7.29341C11.5795 7.50319 11.7224 7.77046 11.7803 8.06144C11.8381 8.35241 11.8084 8.65401 11.6949 8.9281C11.5814 9.20219 11.3891 9.43645 11.1424 9.60128C10.8958 9.7661 10.6058 9.85407 10.3091 9.85407C10.0439 9.85407 9.78951 9.95943 9.60198 10.147C9.41444 10.3345 9.30908 10.5889 9.30908 10.8541V12.8541C9.30908 13.1193 9.41444 13.3736 9.60198 13.5612C9.78951 13.7487 10.0439 13.8541 10.3091 13.8541C10.5743 13.8541 10.8287 13.7487 11.0162 13.5612C11.2037 13.3736 11.3091 13.1193 11.3091 12.8541V11.6941C12.1172 11.4581 12.8127 10.9379 13.2676 10.2295C13.7224 9.52109 13.9058 8.67214 13.784 7.83914C13.6622 7.00613 13.2435 6.24523 12.6049 5.69666C11.9663 5.1481 11.1509 4.84885 10.3091 4.85407Z" fill="#181725"/>
<path d="M10.3091 16.854C10.8614 16.854 11.3091 16.4063 11.3091 15.854C11.3091 15.3017 10.8614 14.854 10.3091 14.854C9.7568 14.854 9.30908 15.3017 9.30908 15.854C9.30908 16.4063 9.7568 16.854 10.3091 16.854Z" fill="#181725"/>
</svg>

