<svg width="19" height="21" viewBox="0 0 19 21" fill="none" xmlns="http://www.w3.org/2000/svg">
<path d="M17.6111 13.3541L15.8112 11.5442V7.08449C15.8351 5.42842 15.2591 3.8196 14.1894 2.5551C13.1197 1.29061 11.6286 0.45583 9.99152 0.20491C9.04139 0.079785 8.0755 0.158728 7.15829 0.436472C6.24109 0.714216 5.39367 1.18437 4.67256 1.81557C3.95146 2.44678 3.37326 3.2245 2.97655 4.09687C2.57983 4.96924 2.37373 5.91617 2.37198 6.87451V11.5442L0.572086 13.3541C0.346005 13.584 0.192692 13.8754 0.131313 14.1919C0.069933 14.5084 0.10321 14.836 0.226984 15.1336C0.350758 15.4313 0.559537 15.686 0.827221 15.8656C1.09491 16.0453 1.40962 16.1421 1.73202 16.1439H5.09181V16.4839C5.13852 17.4991 5.58574 18.4543 6.33546 19.1403C7.08519 19.8263 8.07629 20.1871 9.09157 20.1437C10.1069 20.1871 11.098 19.8263 11.8477 19.1403C12.5974 18.4543 13.0446 17.4991 13.0913 16.4839V16.1439H16.4511C16.7735 16.1421 17.0882 16.0453 17.3559 15.8656C17.6236 15.686 17.8324 15.4313 17.9562 15.1336C18.0799 14.836 18.1132 14.5084 18.0518 14.1919C17.9904 13.8754 17.8371 13.584 17.6111 13.3541ZM11.0915 16.4839C11.036 16.9649 10.7971 17.4059 10.4246 17.7151C10.052 18.0244 9.57453 18.1779 9.09157 18.1438C8.60862 18.1779 8.13113 18.0244 7.75858 17.7151C7.38603 17.4059 7.14715 16.9649 7.09169 16.4839V16.1439H11.0915V16.4839ZM2.60196 14.1441L3.78189 12.9641C3.96905 12.7781 4.11753 12.5568 4.21879 12.3131C4.32004 12.0694 4.37207 11.8081 4.37186 11.5442V6.87451C4.3724 6.19995 4.51723 5.53331 4.79662 4.91934C5.07602 4.30536 5.48351 3.75825 5.99176 3.31472C6.49315 2.86043 7.08727 2.52052 7.73299 2.31851C8.37872 2.11651 9.06064 2.05723 9.73153 2.14479C10.8879 2.33256 11.9376 2.93176 12.6872 3.83207C13.4369 4.73238 13.8361 5.8732 13.8113 7.0445V11.5442C13.8098 11.8074 13.8602 12.0683 13.9597 12.312C14.0593 12.5557 14.2059 12.7773 14.3913 12.9641L15.5812 14.1441H2.60196Z" fill="#181725"/>
</svg>

