<svg width="21" height="14" viewBox="0 0 21 14" fill="none" xmlns="http://www.w3.org/2000/svg">
<path d="M18.0916 4.26597V2.3449H2.09155V4.26597H18.0916ZM18.0916 6.18705H2.09155V11.9503H18.0916V6.18705ZM2.09155 0.423828H18.0916C18.622 0.423828 19.1307 0.626226 19.5058 0.986497C19.8808 1.34677 20.0916 1.8354 20.0916 2.3449V11.9503C20.0916 12.4598 19.8808 12.9484 19.5058 13.3087C19.1307 13.6689 18.622 13.8713 18.0916 13.8713H2.09155C1.56112 13.8713 1.05241 13.6689 0.677339 13.3087C0.302266 12.9484 0.0915527 12.4598 0.0915527 11.9503V2.3449C0.0915527 1.8354 0.302266 1.34677 0.677339 0.986497C1.05241 0.626226 1.56112 0.423828 2.09155 0.423828ZM4.09155 8.10812H5.09155C5.35677 8.10812 5.61112 8.20932 5.79866 8.38945C5.9862 8.56959 6.09155 8.81391 6.09155 9.06866C6.09155 9.32341 5.9862 9.56772 5.79866 9.74786C5.61112 9.92799 5.35677 10.0292 5.09155 10.0292H4.09155C3.82634 10.0292 3.57198 9.92799 3.38445 9.74786C3.19691 9.56772 3.09155 9.32341 3.09155 9.06866C3.09155 8.81391 3.19691 8.56959 3.38445 8.38945C3.57198 8.20932 3.82634 8.10812 4.09155 8.10812ZM9.09155 8.10812H14.0916C14.3568 8.10812 14.6111 8.20932 14.7987 8.38945C14.9862 8.56959 15.0916 8.81391 15.0916 9.06866C15.0916 9.32341 14.9862 9.56772 14.7987 9.74786C14.6111 9.92799 14.3568 10.0292 14.0916 10.0292H9.09155C8.82634 10.0292 8.57198 9.92799 8.38445 9.74786C8.19691 9.56772 8.09155 9.32341 8.09155 9.06866C8.09155 8.81391 8.19691 8.56959 8.38445 8.38945C8.57198 8.20932 8.82634 8.10812 9.09155 8.10812Z" fill="#181725"/>
</svg>

