<svg width="24" height="23" viewBox="0 0 24 23" fill="none" xmlns="http://www.w3.org/2000/svg">
<path d="M17.639 4.12069C17.9241 3.84688 17.924 3.40296 17.639 3.12919L15.4633 1.03935C15.1782 0.765538 14.7161 0.765573 14.4311 1.03935L1.10481 13.8397C0.819794 14.1135 0.819756 14.5574 1.10481 14.8312L3.28052 16.921C3.56558 17.1949 4.02774 17.1948 4.31276 16.921C4.92783 16.3302 5.929 16.3302 6.54409 16.921C7.15919 17.5119 7.15919 18.4735 6.5441 19.0643C6.25907 19.3381 6.25904 19.782 6.54409 20.0558L8.7198 22.1457C9.00486 22.4195 9.46702 22.4194 9.75204 22.1457L23.0783 9.34532C23.3634 9.07151 23.3633 8.62759 23.0783 8.35382L20.9026 6.26397C20.6175 5.99016 20.1554 5.9902 19.8704 6.26397C19.2553 6.85477 18.2541 6.8548 17.639 6.26397C17.0239 5.67315 17.0239 4.71152 17.639 4.12069ZM16.6067 7.2555C17.6135 8.22249 19.1562 8.36735 20.3238 7.691L21.5299 8.84957L13.1794 16.8705L12.0638 15.7989C11.7787 15.5251 11.3165 15.5251 11.0315 15.7989C10.7465 16.0727 10.7465 16.5166 11.0315 16.7904L12.1472 17.862L9.23592 20.6584L8.02975 19.4998C8.73386 18.3784 8.58305 16.8965 7.57633 15.9295C6.56962 14.9626 5.02688 14.8177 3.85934 15.494L2.65317 14.3354L5.56441 11.5391L6.68007 12.6107C6.96513 12.8846 7.42729 12.8845 7.71231 12.6107C7.99734 12.337 7.99734 11.893 7.71231 11.6192L6.59665 10.5476L14.9472 2.52663L16.1533 3.6852C15.4492 4.80668 15.6 6.28851 16.6067 7.2555Z" fill="#181725" stroke="#181725" stroke-width="0.3"/>
<path d="M8.31172 13.1866C8.02673 13.4604 8.02677 13.9042 8.31172 14.1779L9.39927 15.2225C9.68426 15.4963 10.1463 15.4962 10.4313 15.2225C10.7162 14.9488 10.7162 14.505 10.4313 14.2312L9.34373 13.1866C9.34373 13.1866 9.34372 13.1866 9.34372 13.1866C9.05878 12.9129 8.5967 12.9129 8.31172 13.1866Z" fill="#181725" stroke="#181725" stroke-width="0.3"/>
</svg>

