<svg width="17" height="21" viewBox="0 0 17 21" fill="none" xmlns="http://www.w3.org/2000/svg">
    <path d="M4.66873 10.5881C4.80956 10.5356 4.961 10.5083 5.11411 10.5078C5.26722 10.5074 5.41889 10.5337 5.56015 10.5853C5.70141 10.6368 5.82939 10.7126 5.93653 10.8081C6.04367 10.9036 6.1278 11.0168 6.18394 11.1412C6.24007 11.2656 6.26708 11.3985 6.26337 11.5321C6.25965 11.6657 6.22528 11.7974 6.1623 11.9192C6.09932 12.041 6.00899 12.1506 5.89667 12.2415C5.78435 12.3323 5.6523 12.4025 5.50834 12.4481C4.74266 12.7114 4.0855 13.1699 3.62237 13.7638C3.15924 14.3577 2.91158 15.0596 2.91162 15.7781V17.5181C2.91162 17.7833 3.0323 18.0376 3.24711 18.2252C3.46192 18.4127 3.75327 18.5181 4.05706 18.5181H13.2206C13.5244 18.5181 13.8158 18.4127 14.0306 18.2252C14.2454 18.0376 14.3661 17.7833 14.3661 17.5181V15.8711C14.3662 15.1295 14.1082 14.4055 13.6262 13.7949C13.1443 13.1843 12.4612 12.716 11.6674 12.4521C11.5226 12.4082 11.3893 12.3394 11.2754 12.2497C11.1616 12.16 11.0696 12.0513 11.0048 11.9299C10.94 11.8086 10.9038 11.6772 10.8982 11.5434C10.8927 11.4096 10.918 11.2763 10.9726 11.1512C11.0272 11.0261 11.11 10.9119 11.2161 10.8152C11.3223 10.7186 11.4495 10.6416 11.5904 10.5887C11.7312 10.5358 11.8828 10.5081 12.0361 10.5074C12.1895 10.5066 12.3414 10.5326 12.483 10.5841C13.7104 10.9922 14.7669 11.7164 15.5123 12.6606C16.2577 13.6047 16.6569 14.7244 16.657 15.8711V17.5181C16.657 18.3137 16.2949 19.0768 15.6505 19.6394C15.006 20.202 14.132 20.5181 13.2206 20.5181H4.05706C3.14569 20.5181 2.27165 20.202 1.62721 19.6394C0.982769 19.0768 0.620728 18.3137 0.620728 17.5181L0.620728 15.7781C0.620885 14.6582 1.00706 13.5643 1.72902 12.6387C2.45097 11.7131 3.47529 10.9985 4.66873 10.5881ZM8.63885 0.518066C9.85401 0.518066 11.0194 0.939494 11.8787 1.68964C12.7379 2.43978 13.2206 3.4572 13.2206 4.51807V6.51807C13.2206 7.57893 12.7379 8.59635 11.8787 9.34649C11.0194 10.0966 9.85401 10.5181 8.63885 10.5181C7.42368 10.5181 6.25829 10.0966 5.39904 9.34649C4.53979 8.59635 4.05706 7.57893 4.05706 6.51807V4.51807C4.05706 3.4572 4.53979 2.43978 5.39904 1.68964C6.25829 0.939494 7.42368 0.518066 8.63885 0.518066ZM8.63885 2.51807C8.03126 2.51807 7.44857 2.72878 7.01894 3.10385C6.58932 3.47893 6.34796 3.98763 6.34796 4.51807V6.51807C6.34796 7.0485 6.58932 7.55721 7.01894 7.93228C7.44857 8.30735 8.03126 8.51807 8.63885 8.51807C9.24643 8.51807 9.82913 8.30735 10.2588 7.93228C10.6884 7.55721 10.9297 7.0485 10.9297 6.51807V4.51807C10.9297 3.98763 10.6884 3.47893 10.2588 3.10385C9.82913 2.72878 9.24643 2.51807 8.63885 2.51807Z" fill="#181725"/>
</svg>