<svg width="23" height="21" viewBox="0 0 23 21" fill="none" xmlns="http://www.w3.org/2000/svg">
    <path d="M8.98497 20.5181C8.33642 20.5181 7.71443 20.2604 7.25583 19.8018C6.79724 19.3432 6.5396 18.7212 6.5396 18.0727C6.5396 17.4241 6.79724 16.8021 7.25583 16.3436C7.71443 15.885 8.33642 15.6273 8.98497 15.6273C9.63352 15.6273 10.2555 15.885 10.7141 16.3436C11.1727 16.8021 11.4303 17.4241 11.4303 18.0727C11.4303 18.7212 11.1727 19.3432 10.7141 19.8018C10.2555 20.2604 9.63352 20.5181 8.98497 20.5181ZM17.5437 20.5181C16.8952 20.5181 16.2732 20.2604 15.8146 19.8018C15.356 19.3432 15.0984 18.7212 15.0984 18.0727C15.0984 17.4241 15.356 16.8021 15.8146 16.3436C16.2732 15.885 16.8952 15.6273 17.5437 15.6273C18.1923 15.6273 18.8143 15.885 19.2729 16.3436C19.7315 16.8021 19.9891 17.4241 19.9891 18.0727C19.9891 18.7212 19.7315 19.3432 19.2729 19.8018C18.8143 20.2604 18.1923 20.5181 17.5437 20.5181ZM1.60241 3.30636C1.29718 3.29651 1.00775 3.16834 0.795319 2.94895C0.582886 2.72955 0.464111 2.43614 0.464111 2.13075C0.464111 1.82536 0.582886 1.53195 0.795319 1.31255C1.00775 1.09316 1.29718 0.964984 1.60241 0.955139L3.00972 0.955139C4.11258 0.955139 5.06627 1.72054 5.30592 2.7965L6.83794 9.69487C7.07758 10.7708 8.03127 11.5362 9.13413 11.5362H18.3189L20.082 4.48135H8.65606C8.35371 4.46756 8.06831 4.33774 7.85922 4.11889C7.65014 3.90005 7.53346 3.60903 7.53346 3.30636C7.53346 3.00369 7.65014 2.71266 7.85922 2.49382C8.06831 2.27498 8.35371 2.14516 8.65606 2.13136H20.082C20.4395 2.13125 20.7922 2.21264 21.1135 2.36933C21.4347 2.52603 21.716 2.7539 21.936 3.03564C22.1559 3.31737 22.3088 3.64554 22.3829 3.99521C22.457 4.34488 22.4504 4.70684 22.3636 5.05357L20.6004 12.106C20.4733 12.6149 20.1797 13.0666 19.7663 13.3894C19.3529 13.7122 18.8434 13.8875 18.3189 13.8874H9.13413C8.06404 13.8876 7.02589 13.5227 6.19115 12.8532C5.35642 12.1836 4.77501 11.2494 4.54296 10.2047L3.00972 3.30636H1.60241Z" fill="#181725"/>
</svg>