<svg width="29" height="19" viewBox="0 0 29 19" fill="none" xmlns="http://www.w3.org/2000/svg">
    <path d="M18.324 14.2376C19.1119 14.2376 19.8921 14.0824 20.6201 13.7808C21.348 13.4793 22.0095 13.0374 22.5666 12.4802C23.1238 11.9231 23.5657 11.2616 23.8673 10.5337C24.1688 9.80571 24.324 9.0255 24.324 8.23756C24.324 7.44963 24.1688 6.66942 23.8673 5.94146C23.5657 5.21351 23.1238 4.55207 22.5666 3.99492C22.0095 3.43777 21.348 2.99581 20.6201 2.69429C19.8921 2.39276 19.1119 2.23756 18.324 2.23756C16.7327 2.23756 15.2066 2.8697 14.0813 3.99492C12.9561 5.12014 12.324 6.64627 12.324 8.23756C12.324 9.82886 12.9561 11.355 14.0813 12.4802C15.2066 13.6054 16.7327 14.2376 18.324 14.2376ZM24.644 13.1436L28.224 16.7236C28.3194 16.8159 28.3955 16.9263 28.4479 17.0483C28.5002 17.1704 28.5277 17.3016 28.5287 17.4344C28.5298 17.5672 28.5044 17.6988 28.454 17.8217C28.4037 17.9445 28.3293 18.0561 28.2354 18.15C28.1414 18.2438 28.0297 18.318 27.9068 18.3682C27.7838 18.4183 27.6521 18.4436 27.5194 18.4423C27.3866 18.4411 27.2554 18.4134 27.1334 18.3609C27.0115 18.3084 26.9012 18.2321 26.809 18.1366L23.229 14.5566C21.6215 15.8044 19.5988 16.3927 17.5727 16.2018C15.5467 16.0108 13.6696 15.0549 12.3235 13.5286C10.9775 12.0024 10.2637 10.0205 10.3274 7.98649C10.3912 5.95247 11.2277 4.01919 12.6666 2.58021C14.1056 1.14123 16.0389 0.304731 18.0729 0.24099C20.1069 0.177248 22.0888 0.89106 23.6151 2.23711C25.1413 3.58317 26.0972 5.46028 26.2882 7.48632C26.4792 9.51236 25.8908 11.535 24.643 13.1426L24.644 13.1436Z" fill="#181725"/>
    <rect x="0.179443" y="0.237061" width="8.85499" height="2.39923" rx="1.19961" fill="#181725"/>
    <rect x="0.179443" y="7.67523" width="6.46414" height="2.39923" rx="1.19961" fill="#181725"/>
    <rect x="0.179443" y="15.1138" width="8.85499" height="2.39923" rx="1.19961" fill="#181725"/>
</svg>