<svg width="25" height="24" viewBox="0 0 25 24" fill="none" xmlns="http://www.w3.org/2000/svg">
    <path d="M4.73817 11.0097L12.5623 18.8338L20.3864 11.0097C21.0781 10.3179 21.4667 9.37973 21.4667 8.40145C21.4667 7.42317 21.0781 6.48496 20.3864 5.79321C20.0439 5.4507 19.6372 5.179 19.1897 4.99363C18.7422 4.80826 18.2625 4.71285 17.7781 4.71285C16.7999 4.71285 15.8616 5.10147 15.1699 5.79321L12.5623 8.40084L9.95465 5.79444C9.26114 5.11198 8.32605 4.7312 7.35306 4.73504C6.38008 4.73889 5.44803 5.12705 4.75994 5.81498C4.07184 6.50291 3.68346 7.43487 3.67939 8.40786C3.67531 9.38084 4.05587 10.316 4.73817 11.0097ZM11.6931 4.05357L12.5623 4.92278L13.4315 4.05357C14.0014 3.47865 14.6792 3.02196 15.4261 2.70971C16.173 2.39747 16.9742 2.23582 17.7837 2.23405C18.5932 2.23227 19.3951 2.39041 20.1434 2.69938C20.8916 3.00836 21.5715 3.46207 22.1439 4.03449C22.7163 4.60691 23.17 5.28675 23.479 6.03499C23.7879 6.78323 23.9461 7.58513 23.9443 8.39465C23.9425 9.20417 23.7809 10.0054 23.4686 10.7522C23.1564 11.4991 22.6997 12.177 22.1248 12.7469L13.4327 21.4402C13.3185 21.5545 13.1829 21.6452 13.0337 21.707C12.8844 21.7689 12.7245 21.8008 12.5629 21.8008C12.4013 21.8008 12.2413 21.7689 12.0921 21.707C11.9428 21.6452 11.8072 21.5545 11.6931 21.4402L2.99976 12.7481C2.41702 12.18 1.95288 11.5019 1.63426 10.7531C1.31565 10.0042 1.14889 9.19955 1.14368 8.38576C1.13847 7.57196 1.29489 6.76523 1.60389 6.01237C1.91288 5.2595 2.3683 4.57548 2.94371 3.99999C3.51912 3.42449 4.20307 2.96899 4.9559 2.65988C5.70872 2.35078 6.51543 2.19424 7.32923 2.19934C8.14302 2.20444 8.9477 2.37108 9.6966 2.68959C10.4455 3.0081 11.1237 3.47214 11.6918 4.0548L11.6931 4.05357Z" fill="#181725"/>
</svg>