<svg width="16" height="19" viewBox="0 0 16 19" fill="none" xmlns="http://www.w3.org/2000/svg">
    <path fill-rule="evenodd" clip-rule="evenodd" d="M11.0204 1.30752C10.1053 0.912343 9.12029 0.704376 8.12349 0.69588C7.11999 0.680341 6.12382 0.869165 5.19562 1.25086C4.26741 1.63255 3.42658 2.19913 2.7243 2.91611C1.29841 4.36011 0.491346 6.30291 0.474387 8.3322C0.45743 10.3615 1.23192 12.3175 2.63347 13.7851L7.2354 18.5485C7.32802 18.6457 7.4391 18.7235 7.56214 18.7772C7.68517 18.8309 7.81769 18.8595 7.95193 18.8614C8.08598 18.8644 8.21914 18.839 8.34265 18.7868C8.46616 18.7346 8.5772 18.6569 8.66846 18.5586L13.3511 13.8659C14.7784 12.4232 15.5873 10.4811 15.6061 8.45183C15.625 6.42254 14.8523 4.46578 13.452 2.99685C12.7624 2.2771 11.9356 1.7027 11.0204 1.30752ZM7.96174 11.0055C9.31078 11.0055 10.4044 9.91191 10.4044 8.56287C10.4044 7.21383 9.31078 6.12022 7.96174 6.12022C6.6127 6.12022 5.51909 7.21383 5.51909 8.56287C5.51909 9.91191 6.6127 11.0055 7.96174 11.0055Z" fill="#4C4F4D"/>
</svg>