<svg width="19" height="19" viewBox="0 0 19 19" fill="none" xmlns="http://www.w3.org/2000/svg">
    <path d="M8.75954 14.5715C9.54747 14.5715 10.3277 14.4164 11.0556 14.1148C11.7836 13.8133 12.445 13.3713 13.0022 12.8142C13.5593 12.257 14.0013 11.5956 14.3028 10.8676C14.6043 10.1397 14.7595 9.35948 14.7595 8.57155C14.7595 7.78362 14.6043 7.0034 14.3028 6.27545C14.0013 5.54749 13.5593 4.88606 13.0022 4.32891C12.445 3.77176 11.7836 3.3298 11.0556 3.02827C10.3277 2.72674 9.54747 2.57155 8.75954 2.57155C7.16824 2.57155 5.64211 3.20369 4.5169 4.32891C3.39168 5.45413 2.75954 6.98025 2.75954 8.57155C2.75954 10.1628 3.39168 11.689 4.5169 12.8142C5.64211 13.9394 7.16824 14.5715 8.75954 14.5715ZM15.0795 13.4775L18.6595 17.0575C18.755 17.1499 18.8311 17.2603 18.8834 17.3823C18.9357 17.5043 18.9632 17.6356 18.9643 17.7684C18.9653 17.9011 18.9399 18.0328 18.8896 18.1557C18.8392 18.2785 18.7649 18.3901 18.6709 18.4839C18.577 18.5778 18.4653 18.6519 18.3423 18.7021C18.2194 18.7523 18.0877 18.7775 17.9549 18.7763C17.8221 18.775 17.6909 18.7474 17.569 18.6949C17.447 18.6424 17.3367 18.5661 17.2445 18.4705L13.6645 14.8905C12.057 16.1384 10.0343 16.7267 8.00829 16.5357C5.98225 16.3448 4.10514 15.3889 2.75909 13.8626C1.41303 12.3364 0.699221 10.3545 0.762962 8.32047C0.826703 6.28645 1.66321 4.35317 3.10218 2.91419C4.54116 1.47522 6.47444 0.638715 8.50846 0.574974C10.5425 0.511233 12.5243 1.22504 14.0506 2.5711C15.5768 3.91715 16.5328 5.79426 16.7237 7.8203C16.9147 9.84634 16.3264 11.869 15.0785 13.4765L15.0795 13.4775Z" fill="#181B19"/>
</svg>