<svg width="21" height="21" viewBox="0 0 21 21" fill="none" xmlns="http://www.w3.org/2000/svg">
    <path d="M7.95179 7.58781C8.48178 8.06281 9.18379 8.35181 9.95179 8.35181H11.9518C12.6899 8.35283 13.4023 8.08069 13.9518 7.58781H7.95179ZM7.95179 7.58781C7.40232 8.08069 6.68992 8.35283 5.95179 8.35181L7.95179 7.58781ZM7.00179 2.35181V2.30181H6.95179H3.95179C3.67331 2.30181 3.40624 2.41243 3.20932 2.60934C3.01241 2.80626 2.90179 3.07333 2.90179 3.35181V5.35181C2.90179 5.63028 3.01241 5.89736 3.20932 6.09427C3.40624 6.29118 3.67331 6.40181 3.95179 6.40181H5.95179C6.23026 6.40181 6.49733 6.29118 6.69425 6.09427C6.89116 5.89736 7.00179 5.63028 7.00179 5.35181V2.35181ZM3.96179 8.30181H3.91179V8.35181V18.3168V18.3668H3.96179H5.95179H6.00179V18.3168V13.3518C6.00179 12.8346 6.20723 12.3386 6.57293 11.9729C6.93862 11.6073 7.43461 11.4018 7.95179 11.4018H9.95179C10.469 11.4018 10.9649 11.6073 11.3306 11.9729C11.6963 12.3386 11.9018 12.8346 11.9018 13.3518V18.3168V18.3668H11.9518H17.9648H18.0148V18.3168V8.35181V8.30181H17.9648H15.9518C15.1965 8.30181 14.5063 8.01765 13.9852 7.55057L13.9518 7.52065L13.9184 7.55059C13.3781 8.03522 12.6776 8.30281 11.9519 8.30181H11.9518H9.95179C9.19654 8.30181 8.50632 8.01765 7.98516 7.55057L7.95177 7.52065L7.9184 7.55059C7.37813 8.03522 6.67764 8.30281 5.95185 8.30181H5.95179H3.96179ZM1.95995 7.52893C1.66351 7.25816 1.42548 6.92947 1.26068 6.56299C1.08946 6.18222 1.0012 5.76938 1.00179 5.35188V5.35181V3.35181C1.00179 2.56942 1.31259 1.81907 1.86582 1.26584C2.41905 0.712609 3.1694 0.401807 3.95179 0.401807H17.9518C18.7342 0.401807 19.4845 0.712609 20.0378 1.26584C20.591 1.81907 20.9018 2.56942 20.9018 3.35181V5.35181C20.9018 6.21914 20.5282 6.99984 19.9312 7.53972L19.9148 7.55461V7.57681V18.3168C19.9148 18.834 19.7093 19.33 19.3436 19.6957C18.9779 20.0614 18.482 20.2668 17.9648 20.2668H10.3248V20.2659L10.3155 20.2677C10.1956 20.2904 10.0738 20.3018 9.95177 20.3018H7.95179C7.82976 20.3018 7.70799 20.2904 7.58808 20.2677L7.58824 20.2668H7.57878H3.96279C3.44561 20.2668 2.94962 20.0614 2.58393 19.6957C2.21823 19.33 2.01279 18.834 2.01279 18.3168V7.59681V7.47611L1.95995 7.52893ZM10.0018 13.3518V13.3018H9.95179H7.95179H7.90178V13.3518V18.3168V18.3668H7.95179H9.95179V18.3178H10.0018V18.3168V18.2668V13.3518ZM13.0018 2.35181V2.30181H12.9518H8.95179H8.90178V2.35181V5.35181C8.90178 5.63028 9.01241 5.89736 9.20932 6.09427C9.40624 6.29118 9.67331 6.40181 9.95179 6.40181H11.9518C12.2303 6.40181 12.4973 6.29118 12.6942 6.09427C12.8912 5.89736 13.0018 5.63028 13.0018 5.35181V2.35181ZM14.9518 2.30181H14.9018V2.35181V5.35181C14.9018 5.63028 15.0124 5.89736 15.2093 6.09427C15.4062 6.29118 15.6733 6.40181 15.9518 6.40181H17.9518C18.2303 6.40181 18.4973 6.29118 18.6942 6.09427C18.8912 5.89736 19.0018 5.63028 19.0018 5.35181V3.35181C19.0018 3.07333 18.8912 2.80626 18.6942 2.60934C18.4973 2.41243 18.2303 2.30181 17.9518 2.30181H14.9518ZM14.9518 11.4018H15.9518C16.2037 11.4018 16.4454 11.5019 16.6235 11.6801C16.8017 11.8582 16.9018 12.0999 16.9018 12.3518V15.3518C16.9018 15.6038 16.8017 15.8454 16.6235 16.0236C16.4454 16.2017 16.2037 16.3018 15.9518 16.3018H14.9518C14.6998 16.3018 14.4582 16.2017 14.28 16.0236C14.1019 15.8454 14.0018 15.6038 14.0018 15.3518V12.3518C14.0018 12.0999 14.1019 11.8582 14.28 11.6801C14.4582 11.5019 14.6998 11.4018 14.9518 11.4018Z" fill="#181725" stroke="white" stroke-width="0.1"/>
</svg>