<svg width="268" height="70" viewBox="0 0 268 70" fill="none" xmlns="http://www.w3.org/2000/svg">
    <path fill-rule="evenodd" clip-rule="evenodd" d="M37.5433 5.6422C37.8164 3.20276 36.0869 0.99998 33.6475 0.726908C31.208 0.435631 29.0052 2.18329 28.7322 4.62273C28.4045 7.40806 28.8596 10.7395 29.4422 14.162C31.0624 14.6536 32.628 15.3636 34.0844 16.201C35.65 12.5054 37.1792 8.84624 37.5433 5.6422ZM54.674 16.3466C53.7091 14.0892 51.0876 13.0697 48.8302 14.0346C45.8629 15.3271 42.7863 17.8576 39.6914 20.4609C40.8566 21.6078 41.9488 22.9003 42.8773 24.3021C46.3908 23.8652 49.7587 23.3372 52.362 22.2085C54.6194 21.2073 55.657 18.5858 54.674 16.3466ZM47.1918 4.44068C45.2257 2.9843 42.4404 3.38481 40.984 5.35092C38.763 8.33651 37.2702 12.7967 35.65 17.1476C36.1961 17.5117 36.7059 17.8758 37.1974 18.2581C37.5615 18.5494 37.9438 18.8589 38.3261 19.1683C42.0399 16.3648 45.8993 13.6341 48.1203 10.6485C49.5766 8.6824 49.1579 5.89707 47.1918 4.44068Z" fill="white"/>
    <path d="M38.7449 40.0856C37.3795 41.5602 35.9231 42.9256 34.3757 44.2545C32.2093 46.1296 30.0066 47.9501 27.7674 49.6978C25.3643 48.2232 23.6349 47.4768 23.3436 47.8591C23.0887 48.205 24.09 49.4793 25.8923 51.1359C19.8483 55.6325 13.4584 59.6012 6.59521 62.8598C5.52113 63.3696 4.39243 63.7337 3.28194 64.1342C2.99066 64.2434 2.68118 64.2434 2.55375 64.2616C0.80609 64.4618 0.278152 63.9885 0.350971 62.3865C0.569428 57.3984 2.11683 52.7198 3.71886 48.0593C4.15577 46.785 4.61089 45.5107 5.08421 44.2363C7.50545 45.7109 9.2349 46.4755 9.52618 46.0932C9.83566 45.6745 8.37928 43.9997 5.93984 41.9061C7.6875 37.3913 9.63541 32.9494 11.9292 28.6895C16.5168 32.0938 20.5947 34.3329 21.0498 33.714C21.5049 33.095 18.137 29.7999 13.4948 26.3592L13.2946 26.2136C14.0956 24.8482 14.933 23.4829 15.825 22.1539C16.9355 20.4791 18.3009 18.9499 19.648 17.4571C21.4503 15.4728 23.7805 14.7992 26.3838 15.3818C34.7216 17.2386 40.5107 22.0265 43.2414 30.2369C43.7876 31.9117 43.2961 33.5501 42.4404 35.0611C41.8579 36.0806 41.2207 37.0455 40.5107 37.9557C36.1052 34.7334 32.2822 32.6581 31.8452 33.2407C31.4265 33.8232 34.4667 36.827 38.7449 40.0856Z" fill="white"/>
    <path d="M92.4489 10.4026C86.678 10.4026 82.9278 12.7146 80.6522 17.1019H80.5248V14.3712C80.5248 12.4051 78.9228 10.8213 76.9567 10.8213C74.9906 10.8213 73.4067 12.4051 73.4067 14.3712V44.573C73.4067 46.5391 74.9906 48.1411 76.9567 48.1411H77.3026C79.2687 48.1411 80.8707 46.5391 80.8707 44.573V26.5866C80.8707 20.7065 84.2386 16.7925 89.8639 16.7925C95.3253 16.7925 97.9468 19.9601 97.9468 25.6218V44.573C97.9468 46.5391 99.5306 48.1411 101.497 48.1411H101.843C103.809 48.1411 105.393 46.5391 105.393 44.573V24.22C105.393 15.6274 100.696 10.4026 92.4489 10.4026Z" fill="white"/>
    <path d="M128.422 10.3297C117.99 10.3297 111.182 17.9393 111.182 29.6086C111.182 41.296 117.917 48.578 128.731 48.578C135.43 48.578 140.965 45.6106 143.459 40.9866C144.387 39.2935 143.113 37.2 141.183 37.2H139.29C138.343 37.2 137.524 37.7461 137.032 38.5653C135.594 41.0412 132.572 42.534 128.877 42.534C122.76 42.534 118.7 38.2741 118.7 31.8114V31.3744H142.548C143.968 31.3744 145.134 30.2093 145.134 28.7894V28.753C145.134 17.4478 138.671 10.3297 128.422 10.3297ZM118.737 26.0768C119.155 20.3423 123.033 16.4101 128.403 16.4101C133.828 16.4101 137.506 20.2695 137.67 26.0768H118.737Z" fill="white"/>
    <path d="M179.85 35.5979H177.866C176.792 35.5979 175.863 36.2715 175.463 37.2728C174.17 40.5679 171.221 42.3337 167.034 42.3337C161.045 42.3337 157.003 37.5094 157.003 29.4811C157.003 21.6349 160.99 16.6286 166.998 16.6286C171.33 16.6286 174.225 18.7767 175.408 21.8351C175.809 22.8546 176.737 23.5646 177.848 23.5646H179.832C181.561 23.5646 182.854 21.8715 182.29 20.2331C180.378 14.6078 174.917 10.3297 166.925 10.3297C156.384 10.3297 149.43 17.8665 149.43 29.4811C149.43 41.296 156.402 48.578 166.998 48.578C174.589 48.578 180.232 44.8642 182.308 38.984C182.89 37.3274 181.616 35.5979 179.85 35.5979Z" fill="white"/>
    <path d="M202.206 42.2791C202.078 42.2609 201.932 42.2427 201.805 42.2427C199.347 41.9514 198.2 40.4222 198.2 37.5459V16.7014H202.406C204.044 16.7014 205.355 15.3724 205.355 13.7522C205.355 12.132 204.044 10.8212 202.406 10.8212H198.2V6.14261C198.2 5.12314 197.782 4.1947 197.108 3.52112C196.435 2.84754 195.524 2.42883 194.487 2.42883C192.448 2.42883 190.791 4.10367 190.791 6.14261V10.8212H188.57C186.95 10.8212 185.621 12.132 185.621 13.7522C185.621 15.3724 186.95 16.7014 188.57 16.7014H190.791V38.3105C190.791 45.5196 193.667 48.3777 201.131 48.3777C201.15 48.3777 201.168 48.3777 201.168 48.3777C202.023 48.3777 202.806 48.1228 203.462 47.6677C203.48 47.6677 203.498 47.6495 203.498 47.6495C204.263 47.1034 204.772 46.2113 204.772 45.2101C204.772 43.7173 203.662 42.4611 202.206 42.2791Z" fill="white"/>
    <path d="M226.418 10.3297C220.592 10.3297 215.786 12.6963 213.329 16.3555C212.928 16.9745 212.728 17.648 212.728 18.3034C212.728 20.1239 214.184 21.8169 216.241 21.8169C217.443 21.8169 218.59 21.1798 219.154 20.1239C220.356 17.8665 222.923 16.4829 226.218 16.4829C231.206 16.4829 234.046 18.8313 234.046 23.0913V23.5464C234.046 24.9117 232.99 26.0404 231.624 26.1133L223.978 26.5502C214.767 27.1327 209.724 30.9193 209.724 37.4548C209.724 44.1178 214.876 48.5051 222.34 48.5051C227.419 48.5051 232.061 45.9747 234.119 41.915H234.282V44.5729C234.282 45.556 234.683 46.448 235.32 47.1034C235.975 47.7405 236.867 48.141 237.851 48.141C239.817 48.141 241.4 46.539 241.4 44.5729V22.5451C241.4 15.154 235.52 10.3297 226.418 10.3297ZM234.046 34.1234C234.046 39.0204 229.859 42.5704 224.324 42.5704C220.028 42.5704 217.243 40.5132 217.243 37.3092C217.243 34.0141 219.901 32.1208 224.98 31.8114L234.046 31.1924V34.1234Z" fill="white"/>
    <path d="M265.158 10.439C260.752 10.439 257.33 12.9512 256.146 17.1019H256.019V14.3712C256.019 12.4051 254.417 10.8213 252.469 10.8213C250.503 10.8213 248.901 12.4051 248.901 14.3712V44.4091C248.901 45.4286 249.32 46.3752 249.993 47.0488C250.667 47.7224 251.595 48.1411 252.633 48.1411C254.69 48.1411 256.365 46.4662 256.365 44.4091V25.8766C256.365 20.6154 259.46 17.2111 264.375 17.2111C264.575 17.2111 264.794 17.2111 264.994 17.2293C266.523 17.284 267.761 16.0278 267.761 14.4986V13.0605C267.761 11.6223 266.596 10.439 265.158 10.439Z" fill="white"/>
    <path d="M204.773 45.2101C204.773 46.2113 204.263 47.1034 203.498 47.6495C203.498 47.6495 203.48 47.6677 203.462 47.6677C202.988 47.9954 202.424 48.1774 201.805 48.1774C200.149 48.1774 198.82 46.8485 198.82 45.2101C198.82 43.5716 200.149 42.2427 201.805 42.2427C201.933 42.2427 202.078 42.2609 202.206 42.2791C203.662 42.4611 204.773 43.7173 204.773 45.2101Z" fill="white"/>
    <path d="M82.4087 63.4228C81.69 64.1321 80.8173 64.4868 79.7907 64.4868C78.764 64.4868 77.8913 64.1321 77.1727 63.4228C76.4633 62.7135 76.1087 61.8408 76.1087 60.8048C76.1087 59.7688 76.4633 58.8961 77.1727 58.1868C77.8913 57.4775 78.764 57.1228 79.7907 57.1228C80.8173 57.1228 81.69 57.4775 82.4087 58.1868C83.1273 58.8961 83.4867 59.7688 83.4867 60.8048C83.4867 61.8408 83.1273 62.7135 82.4087 63.4228ZM79.7907 63.2968C80.4907 63.2968 81.0787 63.0588 81.5547 62.5828C82.0307 62.1068 82.2687 61.5141 82.2687 60.8048C82.2687 60.0955 82.0307 59.5028 81.5547 59.0268C81.0787 58.5508 80.4907 58.3128 79.7907 58.3128C79.1 58.3128 78.5167 58.5508 78.0407 59.0268C77.5647 59.5028 77.3267 60.0955 77.3267 60.8048C77.3267 61.5141 77.5647 62.1068 78.0407 62.5828C78.5167 63.0588 79.1 63.2968 79.7907 63.2968ZM93.9085 57.1228C94.7299 57.1228 95.3879 57.3841 95.8825 57.9068C96.3772 58.4201 96.6245 59.1201 96.6245 60.0068V64.3048H95.4065V60.0768C95.4065 59.5075 95.2525 59.0688 94.9445 58.7608C94.6365 58.4435 94.2119 58.2848 93.6705 58.2848C93.0639 58.2848 92.5739 58.4761 92.2005 58.8588C91.8272 59.2321 91.6405 59.8108 91.6405 60.5948V64.3048H90.4225V57.3048H91.6405V58.3128C92.1352 57.5195 92.8912 57.1228 93.9085 57.1228ZM103.825 64.3048V54.0848H105.043V64.3048H103.825ZM113.017 56.0308C112.784 56.0308 112.588 55.9515 112.429 55.7928C112.27 55.6341 112.191 55.4428 112.191 55.2188C112.191 54.9948 112.27 54.8035 112.429 54.6448C112.588 54.4768 112.784 54.3928 113.017 54.3928C113.241 54.3928 113.432 54.4768 113.591 54.6448C113.75 54.8035 113.829 54.9948 113.829 55.2188C113.829 55.4428 113.75 55.6341 113.591 55.7928C113.432 55.9515 113.241 56.0308 113.017 56.0308ZM112.401 64.3048V57.3048H113.619V64.3048H112.401ZM124.463 57.1228C125.285 57.1228 125.943 57.3841 126.437 57.9068C126.932 58.4201 127.179 59.1201 127.179 60.0068V64.3048H125.961V60.0768C125.961 59.5075 125.807 59.0688 125.499 58.7608C125.191 58.4435 124.767 58.2848 124.225 58.2848C123.619 58.2848 123.129 58.4761 122.755 58.8588C122.382 59.2321 122.195 59.8108 122.195 60.5948V64.3048H120.977V57.3048H122.195V58.3128C122.69 57.5195 123.446 57.1228 124.463 57.1228ZM135.234 61.3648C135.355 61.9901 135.64 62.4755 136.088 62.8208C136.545 63.1661 137.105 63.3388 137.768 63.3388C138.692 63.3388 139.364 62.9981 139.784 62.3168L140.82 62.9048C140.138 63.9595 139.112 64.4868 137.74 64.4868C136.629 64.4868 135.724 64.1415 135.024 63.4508C134.333 62.7508 133.988 61.8688 133.988 60.8048C133.988 59.7501 134.328 58.8728 135.01 58.1728C135.691 57.4728 136.573 57.1228 137.656 57.1228C138.682 57.1228 139.518 57.4868 140.162 58.2148C140.815 58.9335 141.142 59.8015 141.142 60.8188C141.142 60.9961 141.128 61.1781 141.1 61.3648H135.234ZM137.656 58.2708C137.002 58.2708 136.461 58.4575 136.032 58.8308C135.602 59.1948 135.336 59.6848 135.234 60.3008H139.91C139.807 59.6381 139.546 59.1341 139.126 58.7888C138.706 58.4435 138.216 58.2708 137.656 58.2708ZM162.852 57.3048H164.056V64.0108C164.056 65.0468 163.706 65.8495 163.006 66.4188C162.306 66.9975 161.466 67.2868 160.486 67.2868C159.702 67.2868 159.025 67.1375 158.456 66.8388C157.886 66.5495 157.457 66.1295 157.168 65.5788L158.232 64.9768C158.614 65.7608 159.375 66.1528 160.514 66.1528C161.242 66.1528 161.811 65.9615 162.222 65.5788C162.642 65.1961 162.852 64.6735 162.852 64.0108V63.0168C162.236 63.9501 161.358 64.4168 160.22 64.4168C159.221 64.4168 158.376 64.0621 157.686 63.3528C156.995 62.6435 156.65 61.7801 156.65 60.7628C156.65 59.7455 156.995 58.8868 157.686 58.1868C158.376 57.4775 159.221 57.1228 160.22 57.1228C161.368 57.1228 162.245 57.5848 162.852 58.5088V57.3048ZM158.582 62.5408C159.058 63.0168 159.65 63.2548 160.36 63.2548C161.069 63.2548 161.662 63.0168 162.138 62.5408C162.614 62.0648 162.852 61.4721 162.852 60.7628C162.852 60.0628 162.614 59.4748 162.138 58.9988C161.662 58.5228 161.069 58.2848 160.36 58.2848C159.65 58.2848 159.058 58.5228 158.582 58.9988C158.106 59.4748 157.868 60.0628 157.868 60.7628C157.868 61.4721 158.106 62.0648 158.582 62.5408ZM172.619 58.4808C173.02 57.6128 173.748 57.1788 174.803 57.1788V58.4528C174.206 58.4248 173.692 58.5835 173.263 58.9288C172.834 59.2741 172.619 59.8295 172.619 60.5948V64.3048H171.401V57.3048H172.619V58.4808ZM187.02 63.4228C186.301 64.1321 185.429 64.4868 184.402 64.4868C183.375 64.4868 182.503 64.1321 181.784 63.4228C181.075 62.7135 180.72 61.8408 180.72 60.8048C180.72 59.7688 181.075 58.8961 181.784 58.1868C182.503 57.4775 183.375 57.1228 184.402 57.1228C185.429 57.1228 186.301 57.4775 187.02 58.1868C187.739 58.8961 188.098 59.7688 188.098 60.8048C188.098 61.8408 187.739 62.7135 187.02 63.4228ZM184.402 63.2968C185.102 63.2968 185.69 63.0588 186.166 62.5828C186.642 62.1068 186.88 61.5141 186.88 60.8048C186.88 60.0955 186.642 59.5028 186.166 59.0268C185.69 58.5508 185.102 58.3128 184.402 58.3128C183.711 58.3128 183.128 58.5508 182.652 59.0268C182.176 59.5028 181.938 60.0955 181.938 60.8048C181.938 61.5141 182.176 62.1068 182.652 62.5828C183.128 63.0588 183.711 63.2968 184.402 63.2968ZM198.324 64.4868C197.269 64.4868 196.392 64.1368 195.692 63.4368C194.992 62.7275 194.642 61.8501 194.642 60.8048C194.642 59.7595 194.992 58.8868 195.692 58.1868C196.392 57.4775 197.269 57.1228 198.324 57.1228C199.015 57.1228 199.635 57.2908 200.186 57.6268C200.737 57.9535 201.147 58.3968 201.418 58.9568L200.396 59.5448C200.219 59.1715 199.943 58.8728 199.57 58.6488C199.206 58.4248 198.791 58.3128 198.324 58.3128C197.624 58.3128 197.036 58.5508 196.56 59.0268C196.093 59.5028 195.86 60.0955 195.86 60.8048C195.86 61.5048 196.093 62.0928 196.56 62.5688C197.036 63.0448 197.624 63.2828 198.324 63.2828C198.791 63.2828 199.211 63.1755 199.584 62.9608C199.957 62.7368 200.242 62.4381 200.438 62.0648L201.474 62.6668C201.175 63.2175 200.746 63.6608 200.186 63.9968C199.626 64.3235 199.005 64.4868 198.324 64.4868ZM208.935 61.3648C209.056 61.9901 209.341 62.4755 209.789 62.8208C210.246 63.1661 210.806 63.3388 211.469 63.3388C212.393 63.3388 213.065 62.9981 213.485 62.3168L214.521 62.9048C213.839 63.9595 212.813 64.4868 211.441 64.4868C210.33 64.4868 209.425 64.1415 208.725 63.4508C208.034 62.7508 207.689 61.8688 207.689 60.8048C207.689 59.7501 208.029 58.8728 208.711 58.1728C209.392 57.4728 210.274 57.1228 211.357 57.1228C212.383 57.1228 213.219 57.4868 213.863 58.2148C214.516 58.9335 214.843 59.8015 214.843 60.8188C214.843 60.9961 214.829 61.1781 214.801 61.3648H208.935ZM211.357 58.2708C210.703 58.2708 210.162 58.4575 209.733 58.8308C209.303 59.1948 209.037 59.6848 208.935 60.3008H213.611C213.508 59.6381 213.247 59.1341 212.827 58.7888C212.407 58.4435 211.917 58.2708 211.357 58.2708ZM222.961 58.4808C223.362 57.6128 224.09 57.1788 225.145 57.1788V58.4528C224.548 58.4248 224.034 58.5835 223.605 58.9288C223.176 59.2741 222.961 59.8295 222.961 60.5948V64.3048H221.743V57.3048H222.961V58.4808ZM232.453 56.0308C232.219 56.0308 232.023 55.9515 231.865 55.7928C231.706 55.6341 231.627 55.4428 231.627 55.2188C231.627 54.9948 231.706 54.8035 231.865 54.6448C232.023 54.4768 232.219 54.3928 232.453 54.3928C232.677 54.3928 232.868 54.4768 233.027 54.6448C233.185 54.8035 233.265 54.9948 233.265 55.2188C233.265 55.4428 233.185 55.6341 233.027 55.7928C232.868 55.9515 232.677 56.0308 232.453 56.0308ZM231.837 64.3048V57.3048H233.055V64.3048H231.837ZM241.267 61.3648C241.388 61.9901 241.673 62.4755 242.121 62.8208C242.578 63.1661 243.138 63.3388 243.801 63.3388C244.725 63.3388 245.397 62.9981 245.817 62.3168L246.853 62.9048C246.171 63.9595 245.145 64.4868 243.773 64.4868C242.662 64.4868 241.757 64.1415 241.057 63.4508C240.366 62.7508 240.021 61.8688 240.021 60.8048C240.021 59.7501 240.361 58.8728 241.043 58.1728C241.724 57.4728 242.606 57.1228 243.689 57.1228C244.715 57.1228 245.551 57.4868 246.195 58.2148C246.848 58.9335 247.175 59.8015 247.175 60.8188C247.175 60.9961 247.161 61.1781 247.133 61.3648H241.267ZM243.689 58.2708C243.035 58.2708 242.494 58.4575 242.065 58.8308C241.635 59.1948 241.369 59.6848 241.267 60.3008H245.943C245.84 59.6381 245.579 59.1341 245.159 58.7888C244.739 58.4435 244.249 58.2708 243.689 58.2708ZM257.678 58.4808H255.816V62.2748C255.816 62.6201 255.881 62.8675 256.012 63.0168C256.152 63.1568 256.362 63.2315 256.642 63.2408C256.922 63.2408 257.267 63.2315 257.678 63.2128V64.3048C256.614 64.4448 255.834 64.3608 255.34 64.0528C254.845 63.7355 254.598 63.1428 254.598 62.2748V58.4808H253.212V57.3048H254.598V55.7088L255.816 55.3448V57.3048H257.678V58.4808Z" fill="white"/>
</svg>